<?xml version="1.0" encoding="UTF-8"?>
<svg width="30px" height="18px" viewBox="0 0 30 18" version="1.1" xmlns="http://www.w3.org/2000/svg" xmlns:xlink="http://www.w3.org/1999/xlink">
    <!-- Generator: Sketch 49.3 (51167) - http://www.bohemiancoding.com/sketch -->
    <title>bottom-nav-new</title>
    <desc>Created with Sketch.</desc>
    <defs></defs>
    <g id="Symbols" stroke="none" stroke-width="1" fill="none" fill-rule="evenodd">
        <g id="Навигация-снизу" transform="translate(-99.000000, -8.000000)">
            <g id="Group-3">
                <g transform="translate(24.000000, 8.000000)">
                    <g id="Новинки" transform="translate(65.750000, 0.000000)">
                        <g id="bottom-nav-new" transform="translate(10.000000, 0.000000)">
                            <path d="M5.7578125,6.2421875 L7.01953125,6.2421875 L9.3125,10.2617188 L9.3125,6.2421875 L10.4335938,6.2421875 L10.4335938,12 L9.23046875,12 L6.87890625,7.91015625 L6.87890625,12 L5.7578125,12 L5.7578125,6.2421875 Z M15.8125,7.26171875 L12.765625,7.26171875 L12.765625,8.484375 L15.5625,8.484375 L15.5625,9.484375 L12.765625,9.484375 L12.765625,10.9648438 L15.953125,10.9648438 L15.953125,12 L11.5898438,12 L11.5898438,6.2421875 L15.8125,6.2421875 L15.8125,7.26171875 Z M17.6757812,6.2421875 L18.4375,9.5390625 L18.6015625,10.4570312 L18.7695312,9.55859375 L19.4179688,6.2421875 L20.6875,6.2421875 L21.3710938,9.5390625 L21.546875,10.4570312 L21.7226562,9.57421875 L22.4921875,6.2421875 L23.7148438,6.2421875 L22.09375,12 L20.9453125,12 L20.25,8.6328125 L20.046875,7.51953125 L19.84375,8.6328125 L19.1484375,12 L18.03125,12 L16.3984375,6.2421875 L17.6757812,6.2421875 Z" id="NEW" fill="#525252"></path>
                            <rect id="Rectangle-4" stroke="#525252" stroke-width="2" x="1" y="1" width="27" height="16" rx="4"></rect>
                        </g>
                    </g>
                </g>
            </g>
        </g>
    </g>
</svg>