<?xml version="1.0" encoding="UTF-8"?>
<svg width="22px" height="18px" viewBox="0 0 22 18" version="1.1" xmlns="http://www.w3.org/2000/svg" xmlns:xlink="http://www.w3.org/1999/xlink">
    <!-- Generator: Sketch 49.3 (51167) - http://www.bohemiancoding.com/sketch -->
    <title>bottom-nav-basket</title>
    <desc>Created with Sketch.</desc>
    <defs></defs>
    <g id="Symbols" stroke="none" stroke-width="1" fill="none" fill-rule="evenodd">
        <g id="Навигация-снизу" transform="translate(-316.000000, -8.000000)">
            <g id="Group-3">
                <g transform="translate(24.000000, 8.000000)">
                    <g id="Мой-город-Copy" transform="translate(280.000000, 0.000000)">
                        <g id="bottom-nav-basket" transform="translate(12.000000, 0.000000)">
                            <path d="M6.05315185,4 L19.9940096,4 C20.5462943,4 20.9940096,4.44771525 20.9940096,5 C20.9940096,5.14252825 20.963542,5.28340988 20.9046491,5.41320174 L18.1821552,11.4132017 C18.020022,11.7705209 17.6638984,12 17.2715157,12 L8.32189671,12 C7.90605313,12 7.53360901,11.7426496 7.38653176,11.3536841 L5.1177869,5.35368407 C4.92245258,4.83709627 5.18287998,4.25996937 5.69946778,4.06463506 C5.81248927,4.0218989 5.93232041,4 6.05315185,4 Z" id="Path-2" stroke="#525252" stroke-width="2"></path>
                            <circle id="Oval" fill="#525252" cx="10" cy="16" r="2"></circle>
                            <circle id="Oval-Copy" fill="#525252" cx="16" cy="16" r="2"></circle>
                            <path d="M1.09090909,0 L3.83593105,0 C4.2941856,-8.41799951e-17 4.69379923,0.311480264 4.80567333,0.755869076 L6,5.5 L4.61538462,7 L3.23076923,2.18181818 L1.09090909,2.18181818 C0.488416637,2.18181818 7.37840456e-17,1.69340155 0,1.09090909 L0,1.09090909 C-7.37840456e-17,0.488416637 0.488416637,1.10676068e-16 1.09090909,0 Z" id="Path-3" fill="#525252"></path>
                        </g>
                    </g>
                </g>
            </g>
        </g>
    </g>
</svg>