<svg xmlns="http://www.w3.org/2000/svg" width="18" height="16" viewBox="0 0 18 16">
  <path fill="#FFF" fill-rule="evenodd" d="M13.092.002c-1.58.003-3.076.426-4.09 1.636C7.986.428 6.49.005 4.91.002A4.784 4.784 0 0 0 .002 4.91a7.469 7.469 0 0 0 1.636 4.091c1.9 2.769 6.51 6.187 6.709 6.333.388.28.912.28 1.3 0 .207-.146 4.817-3.565 6.717-6.333A7.466 7.466 0 0 0 18 4.911 4.784 4.784 0 0 0 13.092 0zm1.636 8.18C12.919 10.82 9 13.91 9 13.91s-3.917-3.091-5.727-5.727c-.668-.974-1.636-1.995-1.636-3.273A3.341 3.341 0 0 1 4.91 1.638c1.607 0 3.48 1.055 4.091 2.454.612-1.396 2.485-2.454 4.09-2.454a3.24 3.24 0 0 1 3.273 3.272c0 1.073-.969 2.3-1.636 3.273z"/>
</svg>
