<?xml version="1.0" encoding="UTF-8"?>
<svg width="35px" height="21px" viewBox="0 0 35 21" version="1.1" xmlns="http://www.w3.org/2000/svg" xmlns:xlink="http://www.w3.org/1999/xlink">
    <!-- Generator: Sketch 48.2 (47327) - http://www.bohemiancoding.com/sketch -->
    <title>mastercard</title>
    <desc>Created with Sketch.</desc>
    <defs></defs>
    <g id="Футер" stroke="none" stroke-width="1" fill="none" fill-rule="evenodd" transform="translate(-385.000000, -565.000000)" opacity="0.699999988">
        <g id="Group-2" fill="#A5A8A8">
            <path d="M411.351476,576.273795 C410.525831,576.273795 410.361316,576.636429 410.361316,576.942449 C410.361316,577.095459 410.455105,577.364756 410.797971,577.364756 C411.469865,577.364756 411.612854,576.484949 411.588254,576.295216 C411.565191,576.295216 411.542128,576.272265 411.351476,576.272265 L411.351476,576.273795 Z M401.663592,574.781947 C401.050124,574.781947 400.931735,575.475082 400.931735,575.545467 L402.181735,575.545467 C402.169435,575.485793 402.289361,574.781947 401.663592,574.781947 Z M393.167283,576.273795 C392.341637,576.273795 392.175585,576.636429 392.175585,576.942449 C392.175585,577.095459 392.269374,577.364756 392.613777,577.364756 C393.285671,577.364756 393.42866,576.484949 393.40406,576.295216 C393.37946,576.295216 393.357935,576.272265 393.167283,576.272265 L393.167283,576.273795 Z M416.921894,574.898234 C416.425277,574.898234 416.036286,575.473552 416.036286,576.331939 C416.036286,576.861353 416.223862,577.201036 416.626691,577.201036 C417.24016,577.201036 417.523063,576.413034 417.523063,575.825475 C417.535363,575.179773 417.323186,574.898234 416.920357,574.898234 L416.921894,574.898234 Z M409.686347,565.234119 C407.221851,565.234293 404.839083,566.113751 402.97048,567.712882 C404.318271,568.981795 405.313929,570.575597 405.861009,572.339906 L405.365929,572.339906 C404.824696,570.697299 403.879116,569.215548 402.615314,568.029612 C401.349571,569.213665 400.404096,570.69608 399.866237,572.339906 L399.369619,572.339906 C399.943216,570.50028 401.004415,568.848502 402.441575,567.558341 C400.530073,565.904813 398.081588,564.996019 395.548894,565.000013 C392.750904,564.999201 390.067277,566.104979 388.088799,568.073915 C386.110321,570.042852 384.999185,572.713537 385.000001,575.498034 C384.99791,579.604971 387.402834,583.335866 391.154759,585.046259 C394.906683,586.756652 399.316319,586.132315 402.440038,583.448437 C401.155155,582.287559 400.168236,580.837404 399.561809,579.219238 L400.069189,579.219238 C400.628636,580.640891 401.498878,581.920881 402.616852,582.966455 C403.735781,581.92106 404.607064,580.641083 405.16759,579.219238 L405.67497,579.219238 C405.102465,580.764332 404.176556,582.155665 402.97048,583.283186 C404.839083,584.882317 407.221851,585.761774 409.686347,585.761949 C415.373616,585.761949 420,581.157876 420,575.496504 C420,569.835131 415.375154,565.232588 409.686347,565.232588 L409.686347,565.234119 Z M389.449571,578.223143 L390.086102,574.217339 L388.646988,578.223143 L387.879768,578.223143 L387.785979,574.217339 L387.101785,578.223143 L386.016299,578.223143 L386.914208,572.902983 L388.553199,572.902983 L388.600862,576.166688 L389.709411,572.902983 L391.479091,572.902983 L390.59502,578.223143 L389.449571,578.223143 Z M393.285671,578.223143 L393.319497,577.799305 C393.296434,577.799305 392.965868,578.316479 392.163285,578.316479 C391.751231,578.316479 391.079337,578.093084 391.079337,577.11841 C391.079337,575.874438 392.094097,575.464371 393.073494,575.464371 C393.227246,575.464371 393.556274,575.487323 393.556274,575.487323 C393.556274,575.487323 393.591637,575.416938 393.591637,575.205784 C393.591637,574.864572 393.284134,574.817139 392.87208,574.817139 C392.14176,574.817139 391.645143,575.016052 391.645143,575.016052 L391.809657,574.052089 C391.809657,574.052089 392.400063,573.807272 393.167283,573.807272 C393.567037,573.807272 394.712486,573.853175 394.712486,575.156821 L394.275831,578.232324 L393.285671,578.232324 L393.285671,578.223143 Z M397.4508,576.861353 C397.4508,578.340961 396.010149,578.281287 395.751846,578.281287 C394.807812,578.281287 394.523371,578.151228 394.488008,578.140518 L394.64176,577.167374 C394.64176,577.155133 395.113777,577.331094 395.633457,577.331094 C395.939423,577.331094 396.329952,577.308143 396.329952,576.943979 C396.329952,576.402323 394.9262,576.532382 394.9262,575.251687 C394.9262,574.124003 395.762609,573.796562 396.602092,573.796562 C397.238623,573.796562 397.638377,573.877657 397.638377,573.877657 L397.498463,574.864572 C397.498463,574.864572 396.883457,574.818669 396.731243,574.818669 C396.331489,574.818669 396.117775,574.898234 396.117775,575.181303 C396.117775,575.756621 397.452338,575.473552 397.452338,576.861353 L397.4508,576.861353 Z M399.089792,574.957908 L398.771526,576.895016 C398.746926,577.048026 398.794589,577.25918 399.18358,577.25918 C399.277369,577.25918 399.395757,577.223987 399.46802,577.223987 L399.326569,578.17571 C399.20818,578.210902 398.889915,578.316479 398.488623,578.316479 C397.968943,578.316479 397.592252,578.0227 397.592252,577.364756 C397.592252,576.917967 398.228783,573.279388 398.253383,573.254906 L399.37577,573.254906 L399.255843,573.912849 L399.809349,573.912849 L399.669435,574.957908 L399.089792,574.957908 Z M401.814269,577.329564 C402.381612,577.329564 403.005843,577.060266 403.005843,577.060266 L402.805966,578.138987 C402.805966,578.138987 402.440038,578.32719 401.625154,578.32719 C400.728783,578.32719 399.69096,577.950785 399.69096,576.377842 C399.69096,575.016052 400.527369,573.805742 401.649755,573.805742 C402.876692,573.805742 403.254921,574.697791 403.254921,575.43836 C403.254921,575.730609 403.113469,576.460467 403.113469,576.460467 L400.822571,576.460467 C400.822571,576.435985 400.611932,577.328034 401.814269,577.328034 L401.814269,577.329564 Z M405.544281,575.156821 C404.766298,574.887524 404.707873,576.379372 404.375769,578.232324 L403.219558,578.232324 L403.916052,573.911319 L404.966175,573.911319 L404.873924,574.53407 C404.873924,574.53407 405.250616,573.853175 405.745696,573.853175 C405.816591,573.851448 405.887517,573.855028 405.957873,573.863886 C405.816421,574.169906 405.673432,574.439204 405.544281,575.155291 L405.544281,575.156821 Z M408.766913,578.163469 C408.766913,578.163469 408.164207,578.316479 407.787516,578.316479 C406.452953,578.316479 405.768758,577.398419 405.768758,576.002967 C405.768758,573.900609 407.032596,572.785165 408.330259,572.785165 C408.908365,572.785165 409.592559,573.054463 409.592559,573.054463 L409.404982,574.240291 C409.404982,574.240291 408.945265,573.92356 408.377922,573.92356 C407.612239,573.92356 406.926507,574.651888 406.926507,575.966244 C406.926507,576.613477 407.24631,577.222457 408.036593,577.222457 C408.414822,577.222457 408.968328,576.953159 408.968328,576.953159 L408.768451,578.161939 L408.766913,578.163469 Z M411.46679,578.223143 L411.502153,577.799305 C411.477553,577.799305 411.148524,578.316479 410.345941,578.316479 C409.933887,578.316479 409.260456,578.093084 409.260456,577.11841 C409.260456,575.874438 410.275216,575.464371 411.254613,575.464371 C411.408364,575.464371 411.73893,575.487323 411.73893,575.487323 C411.73893,575.487323 411.774293,575.416938 411.774293,575.205784 C411.774293,574.864572 411.46679,574.817139 411.054736,574.817139 C410.322879,574.817139 409.826261,575.016052 409.826261,575.016052 L409.992313,574.052089 C409.992313,574.052089 410.582719,573.807272 411.348401,573.807272 C411.748155,573.807272 412.895142,573.853175 412.895142,575.156821 L412.458487,578.232324 C412.446187,578.221613 411.46679,578.221613 411.46679,578.221613 L411.46679,578.223143 Z M413.791513,578.235384 L412.635302,578.235384 L413.331796,573.912849 L414.381919,573.912849 L414.289668,574.5356 C414.289668,574.5356 414.666359,573.853175 415.161439,573.853175 C415.301353,573.853175 415.373616,573.865416 415.373616,573.865416 C415.219865,574.171436 415.089176,574.440734 414.960025,575.156821 C414.182042,574.887524 414.123616,576.391612 413.791513,578.232324 L413.791513,578.235384 Z M417.226322,578.223143 L417.272448,577.825317 C417.272448,577.825317 416.895757,578.293528 416.222325,578.293528 C415.290591,578.293528 414.829336,577.401479 414.829336,576.484949 C414.829336,575.063485 415.691882,573.830224 416.717405,573.830224 C417.378536,573.830224 417.802891,574.405542 417.802891,574.405542 L418.048893,572.913694 L419.171279,572.913694 L418.310271,578.221613 L417.224785,578.221613 L417.226322,578.223143 Z M419.328106,578.200191 C419.278462,578.231335 419.220726,578.247296 419.162054,578.246094 C419.103699,578.248657 419.046051,578.232572 418.99754,578.200191 C418.942978,578.169375 418.897817,578.124432 418.866851,578.070133 C418.834859,578.021039 418.81876,577.963363 418.820726,577.904882 C418.820726,577.846738 418.831488,577.787064 418.866851,577.741161 C418.897817,577.686862 418.942978,577.64192 418.99754,577.611103 C419.046437,577.579565 419.103809,577.563557 419.162054,577.5652 C419.222017,577.5652 419.280443,577.57591 419.328106,577.611103 C419.386531,577.635584 419.421894,577.681487 419.458795,577.741161 C419.494157,577.799305 419.50492,577.846738 419.50492,577.904882 C419.507828,577.963472 419.491651,578.02143 419.458795,578.070133 C419.428341,578.124818 419.383056,578.169884 419.328106,578.200191 Z M419.291205,577.660066 C419.203108,577.614084 419.097938,577.614084 419.00984,577.660066 C418.96347,577.682798 418.925721,577.719829 418.902214,577.765643 C418.856009,577.853316 418.856009,577.957978 418.902214,578.045651 C418.926814,578.091554 418.962177,578.128277 419.00984,578.152758 C419.097938,578.19874 419.203108,578.19874 419.291205,578.152758 C419.338156,578.130106 419.376069,578.092375 419.398832,578.045651 C419.445036,577.957978 419.445036,577.853316 419.398832,577.765643 C419.375592,577.719259 419.337814,577.681663 419.291205,577.658536 L419.291205,577.660066 Z M419.24508,578.094615 L419.209717,578.034941 C419.194906,578.004472 419.174579,577.976981 419.149754,577.953845 C419.137454,577.943135 419.126691,577.941604 419.103629,577.941604 L419.068266,577.941604 L419.068266,578.094615 L419.00984,578.094615 L419.00984,577.730451 L419.138991,577.730451 C419.186654,577.730451 419.211255,577.730451 419.234317,577.742691 C419.255843,577.754932 419.268143,577.767173 419.280443,577.777884 C419.292743,577.788594 419.292743,577.811546 419.292743,577.836027 C419.292743,577.860509 419.280443,577.881931 419.268143,577.906412 C419.243542,577.930894 419.222017,577.941604 419.197417,577.941604 C419.209717,577.941604 419.222017,577.953845 419.23278,577.966086 C419.242005,577.978327 419.266605,578.001278 419.291205,578.036471 L419.337331,578.108385 L419.24508,578.108385 L419.24508,578.093084 L419.24508,578.094615 Z M419.222017,577.834497 C419.222017,577.822257 419.222017,577.810016 419.209717,577.810016 L419.185117,577.787064 C419.172817,577.787064 419.149754,577.774823 419.126691,577.774823 L419.054428,577.774823 L419.054428,577.8804 L419.126691,577.8804 C419.160517,577.8804 419.185117,577.8804 419.197417,577.86816 C419.222017,577.855919 419.222017,577.843678 419.222017,577.832967 L419.222017,577.834497 Z" id="mastercard"></path>
        </g>
    </g>
</svg>