<?xml version="1.0" encoding="UTF-8"?>
<svg width="26px" height="21px" viewBox="0 0 26 21" version="1.1" xmlns="http://www.w3.org/2000/svg" xmlns:xlink="http://www.w3.org/1999/xlink">
    <!-- Generator: Sketch 49.3 (51167) - http://www.bohemiancoding.com/sketch -->
    <title>quote-2</title>
    <desc>Created with Sketch.</desc>
    <defs>
        <linearGradient x1="-12.0739369%" y1="-9.83218409%" x2="108.310564%" y2="90.9452506%" id="linearGradient-1">
            <stop stop-color="#F8AA42" offset="0%"></stop>
            <stop stop-color="#8338AA" offset="34.067771%"></stop>
            <stop stop-color="#5328AD" offset="66.1529167%"></stop>
            <stop stop-color="#35B9E6" offset="100%"></stop>
        </linearGradient>
    </defs>
    <g id="Дополнительные-страницы" stroke="none" stroke-width="1" fill="none" fill-rule="evenodd">
        <g id="Оптовикам" transform="translate(-574.000000, -2288.000000)" fill="url(#linearGradient-1)">
            <g id="2" transform="translate(543.000000, 1842.000000)">
                <g id="Group-4" transform="translate(31.000000, 446.000000)">
                    <path d="M23.6632648,19.4942516 L22.8856564,21 C20.256864,19.8631809 18.007111,18.0071556 16.3984936,15.6481511 C14.9579806,13.4093598 14.2106935,10.7992138 14.2494315,8.14184483 C14.1775938,6.2111236 14.6756286,4.30170365 15.6821396,2.64897222 C16.7277889,0.939073168 18.6233658,-0.0732253622 20.6347186,0.00413707168 C22.0592211,-0.0255317585 23.4338624,0.525745522 24.4389388,1.52975696 C25.4677588,2.52717392 26.0314274,3.90604273 25.9941557,5.33419142 C26.063978,6.78785597 25.5055538,8.20188711 24.4595719,9.22003502 C23.4268709,10.1865491 22.050482,10.7059915 20.6327842,10.6642458 C19.5005677,10.6597236 18.4036121,10.2722445 17.5223505,9.56554305 C17.3470192,10.1320902 17.2640817,10.7228961 17.2766882,11.3155188 C17.333809,13.0645735 17.999189,14.739828 19.1594548,16.0558377 C20.3442768,17.5619876 21.8938059,18.7449688 23.6632648,19.4942516 Z M9.42000614,19.4942516 L8.64239772,21 C6.01380429,19.8631389 3.76427017,18.0071097 2.15587976,15.6481511 C0.715121851,13.4094694 -0.0321866149,10.7992488 0.00681768918,8.14184483 C-0.0650625152,6.21120429 0.432735809,4.30183139 1.43888095,2.64897222 C2.48453023,0.939073168 4.38010713,-0.0732253622 6.39145993,0.00413707168 C8.28825126,-0.00310557922 10.0474358,0.987528199 11.0164891,2.60858816 C11.5106973,3.43222991 11.7657887,4.37585767 11.7534762,5.33483244 C11.822404,6.79237358 11.2555778,8.20863773 10.1982593,9.22067603 C9.16998651,10.1797824 7.80362353,10.6985001 6.39403906,10.6648868 C5.26028934,10.6692047 4.1604459,10.2807055 3.28360539,9.56618407 C3.10830668,10.1327385 3.02536983,10.7235391 3.03794303,11.3161598 C3.09506386,13.0652145 3.76044383,14.740469 4.92070968,16.0564788 C6.1043916,17.5617528 7.6522869,18.7444516 9.42000614,19.4942516 Z" id="quote-2" transform="translate(13.000000, 10.500000) scale(1, -1) translate(-13.000000, -10.500000) "></path>
                </g>
            </g>
        </g>
    </g>
</svg>