<?xml version="1.0" encoding="UTF-8"?>
<svg width="26px" height="21px" viewBox="0 0 26 21" version="1.1" xmlns="http://www.w3.org/2000/svg" xmlns:xlink="http://www.w3.org/1999/xlink">
    <!-- Generator: Sketch 49.3 (51167) - http://www.bohemiancoding.com/sketch -->
    <title>quote-1</title>
    <desc>Created with Sketch.</desc>
    <defs>
        <linearGradient x1="-12.0739369%" y1="-9.83218409%" x2="108.310564%" y2="90.9452506%" id="linearGradient-1">
            <stop stop-color="#F8AA42" offset="0%"></stop>
            <stop stop-color="#8338AA" offset="34.067771%"></stop>
            <stop stop-color="#5328AD" offset="66.1529167%"></stop>
            <stop stop-color="#35B9E6" offset="100%"></stop>
        </linearGradient>
    </defs>
    <g id="Дополнительные-страницы" stroke="none" stroke-width="1" fill="none" fill-rule="evenodd">
        <g id="Оптовикам" transform="translate(-1064.000000, -2377.000000)" fill="url(#linearGradient-1)">
            <g id="2" transform="translate(543.000000, 1842.000000)">
                <g id="Group-4" transform="translate(31.000000, 446.000000)">
                    <path d="M513.663265,108.494252 L512.885656,110 C510.256864,108.863181 508.007111,107.007156 506.398494,104.648151 C504.957981,102.40936 504.210693,99.7992138 504.249432,97.1418448 C504.177594,95.2111236 504.675629,93.3017036 505.68214,91.6489722 C506.727789,89.9390732 508.623366,88.9267746 510.634719,89.0041371 C512.059221,88.9744682 513.433862,89.5257455 514.438939,90.529757 C515.467759,91.5271739 516.031427,92.9060427 515.994156,94.3341914 C516.063978,95.787856 515.505554,97.2018871 514.459572,98.220035 C513.426871,99.1865491 512.050482,99.7059915 510.632784,99.6642458 C509.500568,99.6597236 508.403612,99.2722445 507.522351,98.5655431 C507.347019,99.1320902 507.264082,99.7228961 507.276688,100.315519 C507.333809,102.064574 507.999189,103.739828 509.159455,105.055838 C510.344277,106.561988 511.893806,107.744969 513.663265,108.494252 Z M499.420006,108.494252 L498.642398,110 C496.013804,108.863139 493.76427,107.00711 492.15588,104.648151 C490.715122,102.409469 489.967813,99.7992488 490.006818,97.1418448 C489.934937,95.2112043 490.432736,93.3018314 491.438881,91.6489722 C492.48453,89.9390732 494.380107,88.9267746 496.39146,89.0041371 C498.288251,88.9968944 500.047436,89.9875282 501.016489,91.6085882 C501.510697,92.4322299 501.765789,93.3758577 501.753476,94.3348324 C501.822404,95.7923736 501.255578,97.2086377 500.198259,98.220676 C499.169987,99.1797824 497.803624,99.6985001 496.394039,99.6648868 C495.260289,99.6692047 494.160446,99.2807055 493.283605,98.5661841 C493.108307,99.1327385 493.02537,99.7235391 493.037943,100.31616 C493.095064,102.065215 493.760444,103.740469 494.92071,105.056479 C496.104392,106.561753 497.652287,107.744452 499.420006,108.494252 Z" id="quote-1" transform="translate(503.000000, 99.500000) scale(-1, 1) translate(-503.000000, -99.500000) "></path>
                </g>
            </g>
        </g>
    </g>
</svg>