<svg xmlns="http://www.w3.org/2000/svg" width="70" height="83" viewBox="0 0 70 83"><defs><linearGradient id="a" x1="14.758%" x2="86.797%" y1="15.301%" y2="83.11%"><stop offset="0%" stop-color="#F7A943"/><stop offset="49.795%" stop-color="#B068FF"/><stop offset="100%" stop-color="#35B9E6"/></linearGradient><linearGradient id="b" x1="-7.099%" x2="136.757%" y1="-5.811%" y2="115.502%"><stop offset="0%" stop-color="#F8AA42"/><stop offset="34.068%" stop-color="#CD6BBF"/><stop offset="69.079%" stop-color="#B653FF"/><stop offset="100%" stop-color="#35B9E6"/></linearGradient></defs><g fill="none" fill-rule="evenodd"><path stroke="url(#a)" stroke-width="2" d="M36 80.634C58.045 65.792 69 50.572 69 35 69 16.222 53.778 1 35 1S1 16.222 1 35c0 18.837 15.112 34 34 34h1v11.634z"/><path fill="url(#b)" d="M47 47H25a2 2 0 0 1-2-2V28c0-.125 13-8 13-8s13 7.986 13 8v17a2 2 0 0 1-2 2zm0-15.744L37.71 37.5 47 43.741V31.256zm-11 7.391L26.545 45h18.91L36 38.647zm-11 5.094l9.29-6.241L25 31.256v12.485zM36 22l-11 7v.071l.052-.078L36 36.349l10.949-7.356.051.078V29l-11-7z"/></g></svg>
