<svg xmlns="http://www.w3.org/2000/svg" width="70" height="83" viewBox="0 0 70 83">
  <g fill="none" fill-rule="evenodd">
    <path stroke="url(#svg-main-gradient)" stroke-width="2" d="M36 80.634C58.045 65.792 69 50.572 69 35 69 16.222 53.778 1 35 1S1 16.222 1 35c0 18.837 15.112 34 34 34h1v11.634z"/>
    <path fill="url(#svg-main-gradient)" d="M45 22h-1.077c-.259 2.613-1.416 9.646-6.329 11.52a2.9 2.9 0 0 1 0 2.96c4.912 1.874 6.07 8.907 6.329 11.52H45a1 1 0 0 1 0 2H25a1 1 0 0 1 0-2h1.077c.259-2.613 1.417-9.646 6.329-11.52a2.9 2.9 0 0 1 0-2.96c-4.913-1.874-6.071-8.907-6.329-11.52H25a1 1 0 0 1 0-2h20a1 1 0 0 1 0 2zM28.114 48h13.754C41.446 45.291 39.86 38 35 38c-5.038 0-6.512 7.291-6.886 10zM35 32c4.86 0 6.446-7.291 6.868-10H28.114c.374 2.709 1.848 10 6.886 10z"/>
  </g>
</svg>
