<?xml version="1.0" encoding="UTF-8"?>
<svg width="37px" height="12px" viewBox="0 0 37 12" version="1.1" xmlns="http://www.w3.org/2000/svg" xmlns:xlink="http://www.w3.org/1999/xlink">
    <!-- Generator: Sketch 48.2 (47327) - http://www.bohemiancoding.com/sketch -->
    <title>visa</title>
    <desc>Created with Sketch.</desc>
    <defs></defs>
    <g id="Футер" stroke="none" stroke-width="1" fill="none" fill-rule="evenodd" transform="translate(-328.000000, -570.000000)" opacity="0.699999988">
        <g id="Group-2" fill="#A5A8A8" fill-rule="nonzero">
            <path d="M353.727048,572.806491 C353.027888,572.491377 352.302319,572.342771 351.550341,572.360676 C351.008737,572.360676 350.593359,572.461387 350.304206,572.66281 C350.015052,572.864232 349.870923,573.091616 349.871818,573.344961 C349.872713,573.598306 349.999386,573.82569 350.251836,574.027113 C350.504285,574.228535 350.928168,574.477852 351.523484,574.775062 C353.184102,575.52704 354.005907,576.54982 353.988898,577.843401 C353.988898,579.032243 353.525626,579.98072 352.599081,580.688832 C351.672537,581.396945 350.431326,581.751001 348.875447,581.751001 C347.581866,581.733097 346.48926,581.532122 345.597629,581.148076 L345.991074,578.577923 L346.357664,578.787402 C347.354035,579.189352 348.280579,579.390327 349.137297,579.390327 C349.609073,579.390327 350.019976,579.289616 350.370004,579.088193 C350.720031,578.886771 350.90355,578.602541 350.920559,578.235504 C350.920559,577.991111 350.806867,577.768203 350.579483,577.566781 C350.352099,577.365358 349.941197,577.116041 349.346776,576.818831 C349.014653,576.644265 348.721918,576.478203 348.468573,576.320646 C348.215228,576.163088 347.948455,575.957637 347.668254,575.704292 C347.388053,575.450947 347.169621,575.153737 347.012959,574.812661 C346.856297,574.471585 346.777518,574.108577 346.776623,573.723636 C346.794527,572.622525 347.27078,571.726418 348.205381,571.035314 C349.139982,570.344211 350.3333,569.999107 351.785334,570.000002 C352.711878,570.000002 353.586053,570.148607 354.407857,570.445817 L354.041268,572.936745 L353.727048,572.806491 Z M341.453693,570.209481 L336.811571,581.592549 L333.716376,581.592549 L331.303332,572.517785 C332.143041,572.849909 332.907999,573.357047 333.598208,574.039198 C334.288416,574.72135 334.782573,575.464375 335.080679,576.268276 C333.996577,573.278268 331.636351,571.328944 328,570.420304 L328.026856,570.210824 L332.773718,570.210824 C333.507791,570.210824 333.953607,570.516987 334.111164,571.129312 L335.134392,576.374358 L335.475467,577.948141 L338.334327,570.210824 L341.455035,570.210824 L341.453693,570.209481 Z M345.596286,570.209481 L343.760654,581.592549 L340.822568,581.592549 L342.6582,570.209481 L345.596286,570.209481 Z M364.323225,581.592549 L361.569105,581.592549 C361.429452,580.700918 361.324712,580.132458 361.254886,579.88717 L357.477539,579.860314 L356.874614,581.591206 L353.753905,581.591206 L358.134177,571.126626 C358.396474,570.514301 358.912116,570.208139 359.681103,570.208139 L361.937037,570.208139 L364.323225,581.592549 Z M359.917439,573.252307 L359.733473,573.737064 C359.663646,573.920582 359.6068,574.073664 359.562935,574.196308 C359.51907,574.318952 359.506089,574.371322 359.523993,574.353417 C358.894659,576.03194 358.501214,577.098585 358.343656,577.553352 L360.729844,577.553352 L360.100062,574.248678 L359.917439,573.252307 Z" id="visa"></path>
        </g>
    </g>
</svg>