<svg xmlns="http://www.w3.org/2000/svg" width="20" height="20" viewBox="0 0 20 20"><g fill="none" fill-rule="nonzero"><path fill="#2CB742" d="M0 20l1.72-5.16A9.776 9.776 0 0 1 .345 9.828C.345 4.4 4.745 0 10.172 0 15.6 0 20 4.4 20 9.828c0 5.427-4.4 9.827-9.828 9.827A9.784 9.784 0 0 1 5.6 18.527L0 20z"/><path fill="#FFF" d="M15.894 13.328c-.438-.829-2.056-1.777-2.056-1.777-.366-.209-.808-.232-1.016.14 0 0-.526.63-.66.721-.61.414-1.176.398-1.747-.173l-1.327-1.327-1.327-1.327c-.571-.571-.587-1.137-.173-1.747.09-.134.72-.66.72-.66.373-.209.35-.65.14-1.016 0 0-.947-1.618-1.776-2.056a.909.909 0 0 0-1.068.16l-.586.586c-1.86 1.86-.944 3.958.915 5.817l1.7 1.699 1.698 1.699c1.86 1.859 3.958 2.774 5.817.915l.586-.586a.91.91 0 0 0 .16-1.068z"/></g></svg>
