<svg xmlns="http://www.w3.org/2000/svg" width="70" height="83" viewBox="0 0 70 83">
  <g fill="none" fill-rule="evenodd">
    <path stroke="url(#svg-main-gradient)" stroke-width="2" d="M36 80.634C58.045 65.792 69 50.572 69 35 69 16.222 53.778 1 35 1S1 16.222 1 35c0 18.837 15.112 34 34 34h1v11.634z"/>
    <path fill="url(#svg-main-gradient)" d="M46 50H25a3 3 0 0 1-3-3V23a3 3 0 0 1 3-3h18a3 3 0 0 1 3 3v24c-.003.341-.066.68-.184 1H46a2.186 2.186 0 0 0 2-2V23c.188-.45.544-.808.992-1A1.9 1.9 0 0 1 50 23v23a3.818 3.818 0 0 1-4 4zm-2-27a1 1 0 0 0-1-1H25a1 1 0 0 0-1 1v24a1 1 0 0 0 1 1h18a1 1 0 0 0 1-1V23zm-5 14h-2a1 1 0 0 1 0-2h2a1 1 0 0 1 0 2zm-3-4h-8a1 1 0 0 1 0-2h8a1 1 0 0 1 0 2zm0-4h-1a1 1 0 0 1 0-2h1a1 1 0 0 1 0 2zm-5 0h-3a1 1 0 0 1 0-2h3a1 1 0 0 1 0 2zm-3 6h5a1 1 0 0 1 0 2h-5a1 1 0 0 1 0-2zm0 4h7a1 1 0 0 1 0 2h-7a1 1 0 0 1 0-2z"/>
  </g>
</svg>
