<svg xmlns="http://www.w3.org/2000/svg" width="96" height="62" viewBox="0 0 96 62"><path fill="#BAABDF" fill-rule="evenodd" d="M1.5 17a1.5 1.5 0 1 1 0 3 1.5 1.5 0 0 1 0-3zm6 0a1.5 1.5 0 1 1 0 3 1.5 1.5 0 0 1 0-3zm7 0h26a1.5 1.5 0 0 1 0 3h-26a1.5 1.5 0 0 1 0-3zm6 9h15a1.5 1.5 0 0 1 0 3h-15a1.5 1.5 0 0 1 0-3zm25.81 16.527c1.163-.641 2.43-.572 2.83.153.4.725-.219 1.833-1.382 2.474L26.7 56.761c-1.163.641-2.43.572-2.83-.153-.4-.725.217-1.834 1.38-2.475l21.06-11.606zM86.5 2a8.5 8.5 0 1 1 0 17 8.5 8.5 0 0 1 0-17zm0 3a5.5 5.5 0 1 1 0 11 5.5 5.5 0 0 1 0-11zM47 59l22-9s2.43-1.329 0-5c-2.059-3.111-6-9-6-9s-1.577-2.213 1-5c2.85-3.082 6-6 6-6l6 8h12c.497.116 1 .082 1 1.5S88 36 88 36H75s-.5.548-5-6c-.263-.383-4 4-4 4l7 11s2.622 5.67-3 8c-5.774 2.392-21 9-21 9s-3.044.084-2-3zm-1-2c-1.1.333-1.933.333-2.5 0s-.733-1-.5-2l14-9s-3.663-5.492-4-6a18.581 18.581 0 0 1-3-13c.508-3.64 3.258-6.368 6-9 4.088-3.924 3-3 3-3s.564-5.341-5-6a36.145 36.145 0 0 0-8 0c-.58-.333-.871-.833-.871-1.5s.29-1.167.871-1.5c0 0 8.853-.016 12 1 3.147 1.016 5.792 7.456 4 10a89.817 89.817 0 0 0-8 8s-2.744 5.712 0 11c.091.175 8 11 8 11L46 57zM39 0c-.667.333-1 .833-1 1.5s.333 1.167 1 1.5h21s8.42.838 14 14c5.439 12.828 6.124 10.852 13 12 4.865.812 8 1 8 1s1.091-2.56-1-3c-.834-.175-11.274-1.262-13-3-3.053-3.075-4.209-8.3-6-12-1.791-3.7-7.3-12-17-12H39zM19.142 50.888l23.42-17.379a1.865 1.865 0 0 1 2.567-.037c.432.893.09 1.968-.779 2.446L20.93 53.3c-.71.693-1.838.71-2.567.037a1.865 1.865 0 0 1 .779-2.449z"/></svg>
