<svg xmlns="http://www.w3.org/2000/svg" width="88" height="59" viewBox="0 0 88 59"><g fill="none" fill-rule="evenodd" transform="translate(0 1)"><rect width="30" height="3" y="22" fill="#BAABDF" rx="1.5"/><rect width="28" height="3" x="14" y="11" fill="#BAABDF" rx="1.5"/><path stroke="#BAABDF" stroke-linecap="round" stroke-width="3" d="M25.5.5h31.004v46H6"/><path stroke="#BAABDF" stroke-width="3" d="M57.5 14h11.12a7 7 0 0 1 5.936 3.29l4.937 7.899a3 3 0 0 0 1.39 1.179l3.27 1.363A3 3 0 0 1 86 30.5v13a3 3 0 0 1-3 3H56.496"/><circle cx="21.5" cy="48.5" r="7.5" fill="#FFF" stroke="#BAABDF" stroke-width="3"/><circle cx="70.5" cy="48.5" r="7.5" fill="#FFF" stroke="#BAABDF" stroke-width="3"/><path stroke="#BAABDF" stroke-linecap="round" stroke-width="3" d="M63 28.5h7.41a1.793 1.793 0 0 0 1.557-2.683L69.5 21.5"/></g></svg>
