<svg xmlns="http://www.w3.org/2000/svg" width="70" height="84" viewBox="0 0 70 84"><g fill="none" fill-rule="evenodd" opacity=".6"><path stroke="#979797" stroke-width="3" d="M5.25 1.5C3.166 1.5 1.5 3.099 1.5 5.04v73.92c0 1.941 1.666 3.54 3.75 3.54h59.5c2.084 0 3.75-1.599 3.75-3.54V5.04c0-1.941-1.666-3.54-3.75-3.54H5.25z"/><rect width="26" height="4" x="12" y="17" fill="#979797" rx="2"/><rect width="19" height="4" x="12" y="26" fill="#979797" rx="2"/><rect width="34" height="4" x="12" y="35" fill="#979797" rx="2"/><rect width="26" height="4" x="12" y="53" fill="#979797" rx="2"/><rect width="6" height="4" x="42" y="53" fill="#979797" rx="2"/><rect width="15" height="4" x="35" y="26" fill="#979797" rx="2"/><rect width="23" height="4" x="12" y="44" fill="#979797" rx="2"/></g></svg>
