<svg xmlns="http://www.w3.org/2000/svg" width="30" height="30" viewBox="0 0 30 30">
  <g fill="none" fill-rule="evenodd">
    <circle cx="15" cy="15" r="15" fill="#7ED321"/>
    <circle cx="10" cy="15" r="3" stroke="#FFF" stroke-width="2"/>
    <rect width="3" height="2" x="4" y="14" fill="#FFF" rx="1"/>
    <rect width="3" height="2" x="23" y="14" fill="#FFF" rx="1"/>
    <path fill="#FFF" d="M12.21 14.804C13.14 13.6 14.07 13 15 13c.93 0 1.86.601 2.79 1.804a1 1 0 0 1 .21.611v.71a.368.368 0 0 1-.64.25c-.786-.861-1.573-1.291-2.36-1.291-.787 0-1.574.43-2.36 1.29a.368.368 0 0 1-.64-.248v-.71a1 1 0 0 1 .21-.612z"/>
    <circle cx="20" cy="15" r="3" stroke="#FFF" stroke-width="2"/>
  </g>
</svg>
