<svg xmlns="http://www.w3.org/2000/svg" width="21" height="18" viewBox="0 0 21 18"><path fill="#949494" fill-rule="evenodd" d="M15.158.002C13.33.006 11.597.599 10.422 2 9.247.599 7.514.006 5.686.002A5.539 5.539 0 0 0 .002 5.686a8.648 8.648 0 0 0 1.894 4.736c2.201 3.205 7.539 7.164 7.768 7.333.45.324 1.056.324 1.506 0 .239-.17 5.577-4.129 7.777-7.333a8.645 8.645 0 0 0 1.895-4.736A5.539 5.539 0 0 0 15.158.002zm1.895 9.473c-2.095 3.052-6.631 6.63-6.631 6.63s-4.536-3.578-6.631-6.63c-.774-1.128-1.895-2.31-1.895-3.79a3.869 3.869 0 0 1 3.79-3.789c1.86 0 4.027 1.222 4.736 2.842.71-1.617 2.878-2.842 4.736-2.842a3.751 3.751 0 0 1 3.79 3.79c0 1.241-1.122 2.661-1.895 3.789z"/></svg>
